<svg width="128" height="128" viewbox="0 0 128 128" fill="none" xmlns="http://www.w3.org/2000/svg">
  <rect x="39.4827" y="44.5771" width="25.4726" height="39.4826" fill="black"/>
  <rect x="96.1592" y="44.5771" width="25.4726" height="39.4826" fill="black"/>
  <rect x="26.7463" y="44.5771" width="12.7363" height="39.4826" fill="white"/>
  <rect x="83.4229" y="44.5771" width="12.7363" height="39.4826" fill="white"/>
  <rect y="56.6766" width="7.64179" height="21.0149" fill="#4965F0"/>
  <rect x="7.64185" y="56.6766" width="13.3731" height="7.64179" fill="#4965F0"/>
  <rect x="21.0149" y="38.8458" width="7.00497" height="50.9453" fill="#4965F0"/>
  <rect x="77.6917" y="38.8458" width="7.00497" height="50.9453" fill="#4965F0"/>
  <rect x="63.6816" y="38.8458" width="7.64179" height="50.9453" fill="#4965F0"/>
  <rect x="120.358" y="38.8458" width="7.64179" height="50.9453" fill="#4965F0"/>
  <rect x="26.7463" y="38.8458" width="38.209" height="7.00497" fill="#4965F0"/>
  <rect x="83.4229" y="38.8458" width="38.209" height="7.00497" fill="#4965F0"/>
  <rect x="26.7463" y="82.7861" width="38.209" height="7.00497" fill="#4965F0"/>
  <rect x="83.4229" y="82.7861" width="38.209" height="7.00497" fill="#4965F0"/>
  <rect x="71.3235" y="56.6766" width="6.36816" height="7.64179" fill="#4965F0"/>
</svg>